<?xml version="1.0" standalone="no"?>
<!DOCTYPE svg PUBLIC "-//W3C//DTD SVG 20010904//EN"
 "http://www.w3.org/TR/2001/REC-SVG-20010904/DTD/svg10.dtd">
<svg version="1.0" xmlns="http://www.w3.org/2000/svg"
 width="40.000000pt" height="40.000000pt" viewBox="0 0 512.000000 512.000000"
 preserveAspectRatio="xMidYMid meet">

<g transform="translate(0.000000,512.000000) scale(0.100000,-0.100000)"
fill="#0099ff" stroke="none">
<path d="M2946 5062 c-11 -51 -46 -291 -46 -311 0 -16 10 -22 58 -30 689 -131
1270 -572 1572 -1196 157 -324 223 -609 223 -965 0 -216 -15 -338 -63 -531
-136 -540 -477 -1017 -939 -1313 -41 -26 -80 -50 -87 -53 -12 -4 -14 71 -14
446 l0 451 -180 0 -180 0 0 -690 0 -690 688 2 687 3 3 178 2 177 -260 0 c-143
0 -260 4 -260 8 0 5 28 31 63 59 75 62 257 246 324 328 303 373 497 825 564
1315 17 124 17 496 0 620 -36 263 -121 554 -228 780 -359 758 -1055 1286
-1890 1434 -28 5 -32 2 -37 -22z"/>
<path d="M450 4760 l0 -180 260 0 c143 0 260 -4 260 -8 0 -5 -19 -24 -42 -43
-76 -60 -239 -222 -318 -316 -377 -446 -582 -979 -606 -1574 -17 -415 74 -827
270 -1224 308 -623 865 -1094 1539 -1301 107 -33 347 -88 353 -81 7 7 57 347
52 352 -2 3 -51 14 -109 25 -190 38 -449 135 -622 232 -195 110 -342 224 -502
389 -176 181 -296 354 -406 583 -292 610 -288 1306 11 1912 180 366 445 665
779 878 41 26 80 50 87 53 12 4 14 -71 14 -446 l0 -451 180 0 180 0 0 690 0
690 -690 0 -690 0 0 -180z"/>
</g>
</svg>
